PathFileType        4      (X/Y/Z)      C:\Users\cpontonn\Documents\TRAVAIL - COURS\FORMATION DOCTORALE\COURS AUTOMNE\DATA\ESCRIME PROPRE\C3Ds\trial10.trc         
DataRate	CameraRate	NumFrames	NumMarkers	Units	OrigDataRate	OrigDataStartFrame	OrigNumFrames
250.0	250.0	4	45	mm	250.0	111	883
Frame#	Time	LCAR			LFHD			LBHD			RFHD			RBHD			C7			T10			CLAV			STRN			LSHO			LUPA			LRAD			LHUM			LWRB			LWRA			RSHO			RBAC			RUPA			RRAD			RHUM			RWRB			RWRA			RCAR			LFWT			LBWT			RFWT			RBWT			LTHI			LKNE			LKNI			LANE			LANI			LHEE			LTAR			LTARI			LTOE			RTHI			RKNE			RKNI			RANE			RANI			RHEE			RTAR			RTARI			RTOE			
		X1	Y1	Z1	X2	Y2	Z2	X3	Y3	Z3	X4	Y4	Z4	X5	Y5	Z5	X6	Y6	Z6	X7	Y7	Z7	X8	Y8	Z8	X9	Y9	Z9	X10	Y10	Z10	X11	Y11	Z11	X12	Y12	Z12	X13	Y13	Z13	X14	Y14	Z14	X15	Y15	Z15	X16	Y16	Z16	X17	Y17	Z17	X18	Y18	Z18	X19	Y19	Z19	X20	Y20	Z20	X21	Y21	Z21	X22	Y22	Z22	X23	Y23	Z23	X24	Y24	Z24	X25	Y25	Z25	X26	Y26	Z26	X27	Y27	Z27	X28	Y28	Z28	X29	Y29	Z29	X30	Y30	Z30	X31	Y31	Z31	X32	Y32	Z32	X33	Y33	Z33	X34	Y34	Z34	X35	Y35	Z35	X36	Y36	Z36	X37	Y37	Z37	X38	Y38	Z38	X39	Y39	Z39	X40	Y40	Z40	X41	Y41	Z41	X42	Y42	Z42	X43	Y43	Z43	X44	Y44	Z44	X45	Y45	Z45	
111	0.44	1530.81055	1065.31458	35.60451999999997	1111.4104	1548.30762	202.08031000000003	1017.099	1513.17468	182.29572000000002	1101.16016	1559.04187	418.1310700000001	989.89301	1507.31323	420.83337000000006	939.52069	1370.64832	243.95255000000003	896.36383	1103.46252	169.74028	1052.66797	1265.77222	343.91531	1067.38318	1112.70044	370.03528	1115.6665	1290.56177	128.40694000000002	1171.7688	1165.0011	121.85152	1147.65027	975.70538	20.88898999999999	1131.0835	936.80566	101.04360999999999	1419.45251	948.10211	97.11704999999998	1398.92017	1047.64978	79.96899999999998	839.35626	1309.05261	419.17911	804.15161	1254.13599	266.05414	773.51978	1087.9873	452.72421	696.81042	1008.14838	422.92398	733.84521	976.25281	342.54318	913.73724	952.07928	576.7272300000001	933.58136	1040.51721	551.22968	952.80371	1019.61005	630.87939	1120.86047	887.56604	272.56808	925.33002	883.50464	149.71751	930.21954	884.63666	412.95486	866.09662	889.23145	192.20485	1207.37048	750.14026	168.82744999999997	1352.24744	510.51053	199.46639999999994	1334.57715	476.18903	336.68094	1305.36987	104.48474999999999	178.1273199999999	1289.07629	110.56446999999999	273.26751999999993	1225.63513	62.27892999999999	204.4198199999999	1443.83618	40.43822999999998	186.7601899999999	1418.38855	51.23068999999998	291.87887999999987	1497.29541	54.740149999999986	277.6248799999999	862.4458	502.44149999999996	528.3949	771.31653	437.50332999999995	473.01653999999996	899.22961	381.11139	455.87996999999996	680.70502	118.22963999999999	192.65435999999997	764.59814	75.48610999999998	230.66968999999995	732.85553	69.52487999999998	134.82543999999993	596.73865	49.02678999999998	305.28896999999995	704.48535	47.92939999999998	342.44051999999994	653.67889	50.80951999999998	397.8418899999999	
112	0.444	1530.88025	1065.31775	35.582679999999975	1111.42493	1548.28955	202.08643000000004	1017.10236	1513.16675	182.29622000000003	1101.18848	1559.04602	418.1246300000001	989.8858	1507.30652	420.82480000000004	939.57159	1370.63196	243.94662000000002	896.38611	1103.46692	169.74358	1052.69788	1265.77515	343.92538	1067.37537	1112.66199	370.04825	1115.70178	1290.54993	128.42769000000004	1171.77039	1165.00464	121.84666	1147.67688	975.69702	20.86138999999999	1131.07947	936.81866	101.04272999999999	1419.47571	948.10333	97.09134999999998	1398.93237	1047.63342	79.97438999999999	839.38654	1309.04858	419.16769	804.17657	1254.14197	266.06662	773.56238	1087.96375	452.72409	696.84247	1008.13916	422.90482	733.88428	976.23474	342.51923	913.66394	952.15948	576.6068100000001	933.63843	1040.4906	551.18604	952.89728	1019.62543	630.83783	1120.83472	887.59125	272.59091	925.32635	883.50531	149.71461	930.20331	884.79614	412.95502	866.11414	889.25708	192.20277	1207.38867	750.16608	168.80546999999999	1352.26392	510.52737	199.50434999999993	1334.59326	476.19553	336.72437	1305.35754	104.48520999999998	178.1349299999999	1289.07178	110.49755999999998	273.27495999999996	1225.64526	62.30735999999999	204.40867999999992	1443.8219	40.446319999999986	186.7636699999999	1418.39465	51.240989999999975	291.8932499999999	1497.31885	54.90296999999999	277.4371599999999	862.45782	502.4463799999999	528.38898	771.28699	437.5024399999999	473.0397899999999	899.26599	381.14249	455.88769999999994	680.70929	118.20575999999998	192.63306999999998	764.61578	75.47959999999999	230.69161999999994	732.86346	69.52382999999999	134.81049999999993	596.73901	49.06406999999998	305.2708099999999	704.56256	47.98510999999998	342.4456799999999	653.66101	50.82097999999998	397.83532999999994	
113	0.448	1530.92737	1065.32739	35.58380999999997	1111.43152	1548.28467	202.07578000000004	1017.12103	1513.16516	182.30316000000002	1101.24622	1559.06335	418.11624000000006	989.94623	1507.28369	420.85660000000007	939.58069	1370.63074	243.95982000000004	896.41473	1103.45959	169.73547	1052.71521	1265.71973	343.91415	1067.37549	1112.62793	370.01727	1115.70203	1290.54944	128.42619000000002	1171.79846	1164.9856	121.87551	1147.69519	975.68268	20.87036999999999	1131.08423	936.81494	101.03971999999999	1419.50684	948.08337	97.07975999999996	1398.96191	1047.604	79.97088999999998	839.41772	1309.04211	419.17422	804.19604	1254.15979	266.0575	773.66791	1087.95154	452.73288	696.91168	1008.11169	422.88672	733.94922	976.23193	342.52264	913.79175	952.04224	576.6518600000002	933.68951	1040.50452	551.13647	952.98547	1019.63239	630.79175	1120.81555	887.56866	272.57944	925.33142	883.51868	149.68623	930.20538	884.82355	412.94971	866.12347	889.27496	192.20944	1207.39661	750.17749	168.80594999999997	1352.24463	510.52618	199.51568999999995	1334.53149	476.19662	336.74539	1305.34509	104.51133999999999	178.1409299999999	1289.07336	110.49131999999999	273.30208999999996	1225.66016	62.29125999999999	204.4251999999999	1443.8468	40.437789999999985	186.7433599999999	1418.37195	51.33895999999998	291.8027299999999	1497.30078	54.86016999999998	277.4486399999999	862.46613	502.42711999999995	528.40588	771.28833	437.49889999999994	473.0072599999999	899.20636	381.17984	455.92794999999995	680.65509	118.13325999999999	192.75709999999998	764.62006	75.48199999999999	230.65615999999994	732.86725	69.53227999999999	134.84067999999994	596.72656	49.060229999999976	305.23150999999996	704.5152	47.96058999999998	342.46578999999997	653.60895	50.74319999999998	397.91036999999994	
114	0.452	1530.94312	1065.31128	35.62324999999997	1111.4325	1548.28955	202.07906000000003	1017.14056	1513.15186	182.30247000000003	1101.24023	1559.01672	418.09143000000006	989.9599	1507.28528	420.84332000000006	939.59753	1370.63879	243.95761000000002	896.42804	1103.45691	169.73578	1052.75977	1265.69751	343.94901	1067.42627	1112.59009	370.03705	1115.7561	1290.54602	128.44356000000002	1171.81543	1164.9823	121.91494	1147.71375	975.70569	20.84445999999999	1131.07825	936.8327	101.01780999999998	1419.54919	948.08606	97.05926999999997	1398.98889	1047.59802	79.95624999999998	839.45026	1309.02844	419.1539	804.23962	1254.13928	266.0112	773.72754	1087.94141	452.71683	696.95868	1008.08594	422.89059	733.96063	976.21747	342.49637	913.88043	952.02002	576.6208500000001	933.77405	1040.49292	551.11578	953.07654	1019.63623	630.74408	1120.81543	887.56226	272.59711	925.36847	883.52386	149.70926	930.20654	884.81488	412.9519	866.14178	889.28235	192.2011	1207.40112	750.17773	168.82863999999998	1352.26782	510.52197	199.52858999999995	1334.50452	476.18298	336.77585	1305.33472	104.49650999999999	178.1638499999999	1289.08105	110.49967999999998	273.32149999999996	1225.64966	62.32194999999999	204.42428999999993	1443.83533	40.42286999999999	186.7855099999999	1418.39465	51.23647999999998	291.9066499999999	1497.30994	54.87027999999999	277.4464999999999	862.48389	502.42885999999993	528.40497	771.30945	437.50985999999995	473.05913999999996	899.28345	381.14932	455.9377099999999	680.74866	118.21640999999998	192.67470999999998	764.61469	75.47234999999999	230.68499999999995	732.87073	69.52154999999999	134.83426999999995	596.83948	49.09320999999998	305.23668999999995	704.56213	47.96266999999998	342.45165999999995	653.64783	50.73154999999998	397.92592999999994	
